<?xml version="1.0" encoding="utf-8"?>
<!-- Generator: Adobe Illustrator 27.5.0, SVG Export Plug-In . SVG Version: 6.00 Build 0)  -->
<svg version="1.1" xmlns="http://www.w3.org/2000/svg" xmlns:xlink="http://www.w3.org/1999/xlink" x="0px" y="0px"
	 viewBox="0 0 500 500" style="enable-background:new 0 0 500 500;" xml:space="preserve">
<g id="BACKGROUND">
</g>
<g id="OBJECTS">
	<g>
		
			<radialGradient id="SVGID_1_" cx="236.3612" cy="592.9285" r="162.4333" gradientTransform="matrix(1 0 0 0.1245 0 321.299)" gradientUnits="userSpaceOnUse">
			<stop  offset="0.0054" style="stop-color:#082E2B;stop-opacity:0.5"/>
			<stop  offset="0.028" style="stop-color:#12313A;stop-opacity:0.4886"/>
			<stop  offset="0.0945" style="stop-color:#2C3762;stop-opacity:0.4552"/>
			<stop  offset="0.1675" style="stop-color:#433D86;stop-opacity:0.4185"/>
			<stop  offset="0.2463" style="stop-color:#5742A3;stop-opacity:0.3789"/>
			<stop  offset="0.333" style="stop-color:#6746BC;stop-opacity:0.3353"/>
			<stop  offset="0.4307" style="stop-color:#7349CE;stop-opacity:0.2862"/>
			<stop  offset="0.5457" style="stop-color:#7C4BDB;stop-opacity:0.2284"/>
			<stop  offset="0.6946" style="stop-color:#814DE3;stop-opacity:0.1535"/>
			<stop  offset="1" style="stop-color:#824DE5;stop-opacity:0"/>
		</radialGradient>
		<ellipse style="fill:url(#SVGID_1_);" cx="236.361" cy="395.119" rx="162.435" ry="20.223"/>
		<g>
			<g>
				
					<linearGradient id="SVGID_00000142156309219566022700000011155017145772900252_" gradientUnits="userSpaceOnUse" x1="326.9003" y1="109.9651" x2="383.1721" y2="109.9651">
					<stop  offset="0.0054" style="stop-color:#190AFF"/>
					<stop  offset="0.9946" style="stop-color:#6280E5"/>
				</linearGradient>
				
					<ellipse transform="matrix(0.1588 -0.9873 0.9873 0.1588 190.0705 443.0257)" style="fill:none;stroke:url(#SVGID_00000142156309219566022700000011155017145772900252_);stroke-width:2.3416;stroke-miterlimit:10;" cx="355.036" cy="109.965" rx="26.965" ry="26.965"/>
				
					<linearGradient id="SVGID_00000163775480664665625120000013864538223078656641_" gradientUnits="userSpaceOnUse" x1="225.6467" y1="100.805" x2="261.1071" y2="100.805">
					<stop  offset="0" style="stop-color:#00825B"/>
					<stop  offset="0.9946" style="stop-color:#FEEE1B"/>
				</linearGradient>
				
					<polygon style="fill:none;stroke:url(#SVGID_00000163775480664665625120000013864538223078656641_);stroke-width:3.1536;stroke-miterlimit:10;" points="
					228.336,114.9 258.031,100.541 237.985,86.182 				"/>
				
					<linearGradient id="SVGID_00000180361168252674593890000015535012594357233283_" gradientUnits="userSpaceOnUse" x1="385.9797" y1="355.8241" x2="438.639" y2="355.8241">
					<stop  offset="0" style="stop-color:#00825B"/>
					<stop  offset="0.9946" style="stop-color:#FEEE1B"/>
				</linearGradient>
				
					<polygon style="fill:none;stroke:url(#SVGID_00000180361168252674593890000015535012594357233283_);stroke-width:4.6832;stroke-miterlimit:10;" points="
					389.973,376.755 434.071,355.432 404.303,334.109 				"/>
				
					<linearGradient id="SVGID_00000160898656221206408710000014106566869558900621_" gradientUnits="userSpaceOnUse" x1="95.8838" y1="296.7143" x2="424.7028" y2="296.7143">
					<stop  offset="0.0054" style="stop-color:#190AFF"/>
					<stop  offset="0.9946" style="stop-color:#6280E5"/>
				</linearGradient>
				<polygon style="fill:url(#SVGID_00000160898656221206408710000014106566869558900621_);" points="381.556,359.212 
					95.884,359.212 139.03,234.217 424.703,234.217 				"/>
				
					<linearGradient id="SVGID_00000036253860900976381900000002276784918828959905_" gradientUnits="userSpaceOnUse" x1="229.2486" y1="296.7143" x2="424.2883" y2="296.7143">
					<stop  offset="0.0054" style="stop-color:#190AFF"/>
					<stop  offset="0.9946" style="stop-color:#6280E5"/>
				</linearGradient>
				<polygon style="opacity:0.47;fill:url(#SVGID_00000036253860900976381900000002276784918828959905_);" points="381.142,359.212 
					229.249,359.212 272.395,234.217 424.288,234.217 				"/>
				
					<linearGradient id="SVGID_00000016766213706071353720000005482941809783950001_" gradientUnits="userSpaceOnUse" x1="241.885" y1="235.0645" x2="471.2658" y2="292.4095">
					<stop  offset="0.0054" style="stop-color:#082E2B;stop-opacity:0.5"/>
					<stop  offset="0.028" style="stop-color:#12313A;stop-opacity:0.4886"/>
					<stop  offset="0.0945" style="stop-color:#2C3762;stop-opacity:0.4552"/>
					<stop  offset="0.1675" style="stop-color:#433D86;stop-opacity:0.4185"/>
					<stop  offset="0.2463" style="stop-color:#5742A3;stop-opacity:0.3789"/>
					<stop  offset="0.333" style="stop-color:#6746BC;stop-opacity:0.3353"/>
					<stop  offset="0.4307" style="stop-color:#7349CE;stop-opacity:0.2862"/>
					<stop  offset="0.5457" style="stop-color:#7C4BDB;stop-opacity:0.2284"/>
					<stop  offset="0.6946" style="stop-color:#814DE3;stop-opacity:0.1535"/>
					<stop  offset="1" style="stop-color:#824DE5;stop-opacity:0"/>
				</linearGradient>
				<polygon style="fill:url(#SVGID_00000016766213706071353720000005482941809783950001_);" points="135.168,245.405 
					370.19,264.021 387.063,234.339 				"/>
				
					<linearGradient id="SVGID_00000144315752599381720670000011560657413692545969_" gradientUnits="userSpaceOnUse" x1="81.5599" y1="305.2066" x2="413.6644" y2="305.2066">
					<stop  offset="0.0054" style="stop-color:#190AFF"/>
					<stop  offset="0.9946" style="stop-color:#6280E5"/>
				</linearGradient>
				
					<polygon style="fill:none;stroke:url(#SVGID_00000144315752599381720670000011560657413692545969_);stroke-width:2.3416;stroke-miterlimit:10;" points="
					368.875,367.704 83.203,367.704 126.349,242.709 412.022,242.709 				"/>
				
					<linearGradient id="SVGID_00000009574202955283036870000003108010241225849266_" gradientUnits="userSpaceOnUse" x1="56.6009" y1="191.101" x2="388.7054" y2="191.101">
					<stop  offset="0" style="stop-color:#00825B"/>
					<stop  offset="0.9946" style="stop-color:#FEEE1B"/>
				</linearGradient>
				
					<polygon style="fill:none;stroke:url(#SVGID_00000009574202955283036870000003108010241225849266_);stroke-width:2.3416;stroke-miterlimit:10;" points="
					343.916,253.599 58.244,253.599 101.39,128.603 387.063,128.603 				"/>
				
					<linearGradient id="SVGID_00000119830679904152207810000009599320968427077803_" gradientUnits="userSpaceOnUse" x1="74.6106" y1="182.9075" x2="403.4297" y2="182.9075">
					<stop  offset="0" style="stop-color:#00825B"/>
					<stop  offset="0.9946" style="stop-color:#FEEE1B"/>
				</linearGradient>
				<polygon style="fill:url(#SVGID_00000119830679904152207810000009599320968427077803_);" points="360.283,245.405 
					74.611,245.405 117.757,120.41 403.43,120.41 				"/>
				
					<linearGradient id="SVGID_00000108275057867944770910000003024091476487104701_" gradientUnits="userSpaceOnUse" x1="205.7803" y1="182.9075" x2="403.4297" y2="182.9075">
					<stop  offset="0" style="stop-color:#00825B"/>
					<stop  offset="0.9946" style="stop-color:#FEEE1B"/>
				</linearGradient>
				<polygon style="opacity:0.3;fill:url(#SVGID_00000108275057867944770910000003024091476487104701_);" points="360.283,245.405 
					205.78,245.405 248.927,120.41 403.43,120.41 				"/>
				
					<text transform="matrix(0.9664 0 -0.2569 0.9664 113.7358 211.8196)" style="fill:#000; font-family:'BebasNeueBold'; font-size:93.5371px;">BIG SALE</text>
				
					<text transform="matrix(0.9664 0 -0.2569 0.9664 184.0249 331.5675)" style="fill:#000; font-family:'BebasNeueBold'; font-size:57.9736px;">50% off</text>
				
					<text transform="matrix(0.9849 0 -0.1733 0.9849 180.8512 282.7484)" style="fill:#000; font-family:'BebasNeueBold'; font-size:17.9417px; letter-spacing:8.123;">SPECIAL OFFER</text>
				
					<linearGradient id="SVGID_00000000199215027898674050000011553176319350450305_" gradientUnits="userSpaceOnUse" x1="75.0402" y1="300.5937" x2="141.4806" y2="300.5937">
					<stop  offset="0" style="stop-color:#00825B"/>
					<stop  offset="0.9946" style="stop-color:#FEEE1B"/>
				</linearGradient>
				<polygon style="fill:url(#SVGID_00000000199215027898674050000011553176319350450305_);" points="132.762,313.222 
					75.04,313.222 83.758,287.966 141.481,287.966 				"/>
				
					<linearGradient id="SVGID_00000105402656540265080990000012893717183654057364_" gradientUnits="userSpaceOnUse" x1="97.5673" y1="313.778" x2="164.0077" y2="313.778">
					<stop  offset="0" style="stop-color:#00825B"/>
					<stop  offset="0.9946" style="stop-color:#FEEE1B"/>
				</linearGradient>
				<polygon style="fill:url(#SVGID_00000105402656540265080990000012893717183654057364_);" points="155.29,326.406 
					97.567,326.406 106.285,301.15 164.008,301.15 				"/>
				
					<linearGradient id="SVGID_00000152237216660852113720000017205774622857999794_" gradientUnits="userSpaceOnUse" x1="361.0332" y1="199.6324" x2="427.4736" y2="199.6324">
					<stop  offset="0.0054" style="stop-color:#190AFF"/>
					<stop  offset="0.9946" style="stop-color:#6280E5"/>
				</linearGradient>
				<polygon style="fill:url(#SVGID_00000152237216660852113720000017205774622857999794_);" points="418.755,212.26 
					361.033,212.26 369.751,187.004 427.474,187.004 				"/>
				
					<linearGradient id="SVGID_00000061463060767364607950000015973579252829955200_" gradientUnits="userSpaceOnUse" x1="383.5603" y1="212.8167" x2="450.0007" y2="212.8167">
					<stop  offset="0.0054" style="stop-color:#190AFF"/>
					<stop  offset="0.9946" style="stop-color:#6280E5"/>
				</linearGradient>
				<polygon style="fill:url(#SVGID_00000061463060767364607950000015973579252829955200_);" points="441.283,225.445 
					383.56,225.445 392.278,200.189 450.001,200.189 				"/>
				
					<linearGradient id="SVGID_00000107548554855163407530000006542835147919771268_" gradientUnits="userSpaceOnUse" x1="162.3776" y1="274.5693" x2="179.6998" y2="274.5693" gradientTransform="matrix(1 0 -0.336 1 71.3148 0)">
					<stop  offset="0" style="stop-color:#00825B"/>
					<stop  offset="0.9946" style="stop-color:#FEEE1B"/>
				</linearGradient>
				
					<polygon style="fill:none;stroke:url(#SVGID_00000107548554855163407530000006542835147919771268_);stroke-width:2.3416;stroke-miterlimit:10;" points="
					139.929,282.542 156.418,274.569 145.287,266.596 				"/>
				
					<linearGradient id="SVGID_00000134251511808118776440000004271178637455548344_" gradientUnits="userSpaceOnUse" x1="96.0823" y1="344.9098" x2="113.4045" y2="344.9098" gradientTransform="matrix(1 0 -0.336 1 71.3148 0)">
					<stop  offset="0" style="stop-color:#00825B"/>
					<stop  offset="0.9946" style="stop-color:#FEEE1B"/>
				</linearGradient>
				
					<polygon style="fill:none;stroke:url(#SVGID_00000134251511808118776440000004271178637455548344_);stroke-width:2.3416;stroke-miterlimit:10;" points="
					49.999,352.883 66.488,344.91 55.357,336.937 				"/>
				
					<linearGradient id="SVGID_00000070076560026953493260000014467649145330900158_" gradientUnits="userSpaceOnUse" x1="318.7923" y1="231.8418" x2="339.5616" y2="231.8418">
					<stop  offset="0.0054" style="stop-color:#190AFF"/>
					<stop  offset="0.9946" style="stop-color:#6280E5"/>
				</linearGradient>
				
					<polygon style="fill:none;stroke:url(#SVGID_00000070076560026953493260000014467649145330900158_);stroke-width:2.3416;stroke-miterlimit:10;" points="
					320.789,239.619 337.277,231.646 326.147,223.673 				"/>
				
					<linearGradient id="SVGID_00000160897654927877206980000006769813226198250649_" gradientUnits="userSpaceOnUse" x1="106.5882" y1="367.7043" x2="163.672" y2="367.7043">
					<stop  offset="0" style="stop-color:#00825B"/>
					<stop  offset="0.9946" style="stop-color:#FEEE1B"/>
				</linearGradient>
				
					<ellipse transform="matrix(0.9418 -0.3361 0.3361 0.9418 -115.7111 66.7968)" style="fill:none;stroke:url(#SVGID_00000160897654927877206980000006769813226198250649_);stroke-width:3.1536;stroke-miterlimit:10;" cx="135.13" cy="367.704" rx="26.965" ry="26.965"/>
			</g>
			<g>
				<polyline style="fill:none;stroke:#FFFFFF;stroke-width:1.3266;stroke-miterlimit:10;" points="113.227,234.339 
					117.954,227.633 114.511,220.187 				"/>
				<polyline style="fill:none;stroke:#FFFFFF;stroke-width:1.3266;stroke-miterlimit:10;" points="122.373,234.339 
					127.101,227.633 123.657,220.187 				"/>
				<polyline style="fill:none;stroke:#FFFFFF;stroke-width:1.3266;stroke-miterlimit:10;" points="131.52,234.339 136.247,227.633 
					132.803,220.187 				"/>
				<polyline style="fill:none;stroke:#FFFFFF;stroke-width:1.3266;stroke-miterlimit:10;" points="140.666,234.339 
					145.393,227.633 141.95,220.187 				"/>
				<polyline style="fill:none;stroke:#FFFFFF;stroke-width:1.3266;stroke-miterlimit:10;" points="149.812,234.339 154.54,227.633 
					151.096,220.187 				"/>
				<polyline style="fill:none;stroke:#FFFFFF;stroke-width:1.3266;stroke-miterlimit:10;" points="158.959,234.339 
					163.686,227.633 160.243,220.187 				"/>
				<polyline style="fill:none;stroke:#FFFFFF;stroke-width:1.3266;stroke-miterlimit:10;" points="168.105,234.339 
					172.832,227.633 169.389,220.187 				"/>
				<polyline style="fill:none;stroke:#FFFFFF;stroke-width:1.3266;stroke-miterlimit:10;" points="177.251,234.339 
					181.979,227.633 178.535,220.187 				"/>
				<polyline style="fill:none;stroke:#FFFFFF;stroke-width:1.3266;stroke-miterlimit:10;" points="186.398,234.339 
					191.125,227.633 187.682,220.187 				"/>
				<polyline style="fill:none;stroke:#FFFFFF;stroke-width:1.3266;stroke-miterlimit:10;" points="195.544,234.339 
					200.271,227.633 196.828,220.187 				"/>
				<polyline style="fill:none;stroke:#FFFFFF;stroke-width:1.3266;stroke-miterlimit:10;" points="204.69,234.339 209.418,227.633 
					205.974,220.187 				"/>
				<polyline style="fill:none;stroke:#FFFFFF;stroke-width:1.3266;stroke-miterlimit:10;" points="213.837,234.339 
					218.564,227.633 215.121,220.187 				"/>
				<polyline style="fill:none;stroke:#FFFFFF;stroke-width:1.3266;stroke-miterlimit:10;" points="222.983,234.339 227.71,227.633 
					224.267,220.187 				"/>
				<polyline style="fill:none;stroke:#FFFFFF;stroke-width:1.3266;stroke-miterlimit:10;" points="232.129,234.339 
					236.857,227.633 233.413,220.187 				"/>
				<polyline style="fill:none;stroke:#FFFFFF;stroke-width:1.3266;stroke-miterlimit:10;" points="241.276,234.339 
					246.003,227.633 242.56,220.187 				"/>
				<polyline style="fill:none;stroke:#FFFFFF;stroke-width:1.3266;stroke-miterlimit:10;" points="250.422,234.339 
					255.149,227.633 251.706,220.187 				"/>
			</g>
			<g>
				<polyline style="fill:none;stroke:#FFFFFF;stroke-width:1.0775;stroke-miterlimit:10;" points="235.754,350.692 
					239.594,345.246 236.797,339.197 				"/>
				<polyline style="fill:none;stroke:#FFFFFF;stroke-width:1.0775;stroke-miterlimit:10;" points="243.183,350.692 
					247.023,345.246 244.226,339.197 				"/>
				<polyline style="fill:none;stroke:#FFFFFF;stroke-width:1.0775;stroke-miterlimit:10;" points="250.612,350.692 
					254.452,345.246 251.655,339.197 				"/>
				<polyline style="fill:none;stroke:#FFFFFF;stroke-width:1.0775;stroke-miterlimit:10;" points="258.042,350.692 
					261.881,345.246 259.085,339.197 				"/>
				<polyline style="fill:none;stroke:#FFFFFF;stroke-width:1.0775;stroke-miterlimit:10;" points="265.471,350.692 
					269.311,345.246 266.514,339.197 				"/>
				<polyline style="fill:none;stroke:#FFFFFF;stroke-width:1.0775;stroke-miterlimit:10;" points="272.9,350.692 276.74,345.246 
					273.943,339.197 				"/>
				<polyline style="fill:none;stroke:#FFFFFF;stroke-width:1.0775;stroke-miterlimit:10;" points="280.329,350.692 
					284.169,345.246 281.372,339.197 				"/>
				<polyline style="fill:none;stroke:#FFFFFF;stroke-width:1.0775;stroke-miterlimit:10;" points="287.758,350.692 
					291.598,345.246 288.801,339.197 				"/>
				<polyline style="fill:none;stroke:#FFFFFF;stroke-width:1.0775;stroke-miterlimit:10;" points="295.188,350.692 
					299.027,345.246 296.23,339.197 				"/>
				<polyline style="fill:none;stroke:#FFFFFF;stroke-width:1.0775;stroke-miterlimit:10;" points="302.617,350.692 
					306.457,345.246 303.66,339.197 				"/>
				<polyline style="fill:none;stroke:#FFFFFF;stroke-width:1.0775;stroke-miterlimit:10;" points="310.046,350.692 
					313.886,345.246 311.089,339.197 				"/>
				<polyline style="fill:none;stroke:#FFFFFF;stroke-width:1.0775;stroke-miterlimit:10;" points="317.475,350.692 
					321.315,345.246 318.518,339.197 				"/>
				<polyline style="fill:none;stroke:#FFFFFF;stroke-width:1.0775;stroke-miterlimit:10;" points="324.904,350.692 
					328.744,345.246 325.947,339.197 				"/>
				<polyline style="fill:none;stroke:#FFFFFF;stroke-width:1.0775;stroke-miterlimit:10;" points="332.333,350.692 
					336.173,345.246 333.376,339.197 				"/>
				<polyline style="fill:none;stroke:#FFFFFF;stroke-width:1.0775;stroke-miterlimit:10;" points="339.763,350.692 
					343.602,345.246 340.805,339.197 				"/>
				<polyline style="fill:none;stroke:#FFFFFF;stroke-width:1.0775;stroke-miterlimit:10;" points="347.192,350.692 
					351.032,345.246 348.235,339.197 				"/>
			</g>
			<g>
				<polyline style="fill:none;stroke:#FFFFFF;stroke-width:1.0775;stroke-miterlimit:10;" points="258.752,142.678 
					262.592,137.231 259.795,131.183 				"/>
				<polyline style="fill:none;stroke:#FFFFFF;stroke-width:1.0775;stroke-miterlimit:10;" points="266.181,142.678 
					270.021,137.231 267.224,131.183 				"/>
				<polyline style="fill:none;stroke:#FFFFFF;stroke-width:1.0775;stroke-miterlimit:10;" points="273.61,142.678 277.45,137.231 
					274.653,131.183 				"/>
				<polyline style="fill:none;stroke:#FFFFFF;stroke-width:1.0775;stroke-miterlimit:10;" points="281.04,142.678 284.879,137.231 
					282.082,131.183 				"/>
				<polyline style="fill:none;stroke:#FFFFFF;stroke-width:1.0775;stroke-miterlimit:10;" points="288.469,142.678 
					292.309,137.231 289.512,131.183 				"/>
				<polyline style="fill:none;stroke:#FFFFFF;stroke-width:1.0775;stroke-miterlimit:10;" points="295.898,142.678 
					299.738,137.231 296.941,131.183 				"/>
				<polyline style="fill:none;stroke:#FFFFFF;stroke-width:1.0775;stroke-miterlimit:10;" points="303.327,142.678 
					307.167,137.231 304.37,131.183 				"/>
				<polyline style="fill:none;stroke:#FFFFFF;stroke-width:1.0775;stroke-miterlimit:10;" points="310.756,142.678 
					314.596,137.231 311.799,131.183 				"/>
				<polyline style="fill:none;stroke:#FFFFFF;stroke-width:1.0775;stroke-miterlimit:10;" points="318.185,142.678 
					322.025,137.231 319.228,131.183 				"/>
				<polyline style="fill:none;stroke:#FFFFFF;stroke-width:1.0775;stroke-miterlimit:10;" points="325.615,142.678 
					329.454,137.231 326.658,131.183 				"/>
				<polyline style="fill:none;stroke:#FFFFFF;stroke-width:1.0775;stroke-miterlimit:10;" points="333.044,142.678 
					336.884,137.231 334.087,131.183 				"/>
				<polyline style="fill:none;stroke:#FFFFFF;stroke-width:1.0775;stroke-miterlimit:10;" points="340.473,142.678 
					344.313,137.231 341.516,131.183 				"/>
				<polyline style="fill:none;stroke:#FFFFFF;stroke-width:1.0775;stroke-miterlimit:10;" points="347.902,142.678 
					351.742,137.231 348.945,131.183 				"/>
				<polyline style="fill:none;stroke:#FFFFFF;stroke-width:1.0775;stroke-miterlimit:10;" points="355.331,142.678 
					359.171,137.231 356.374,131.183 				"/>
				<polyline style="fill:none;stroke:#FFFFFF;stroke-width:1.0775;stroke-miterlimit:10;" points="362.761,142.678 366.6,137.231 
					363.803,131.183 				"/>
				<polyline style="fill:none;stroke:#FFFFFF;stroke-width:1.0775;stroke-miterlimit:10;" points="370.19,142.678 374.03,137.231 
					371.233,131.183 				"/>
			</g>
		</g>
	</g>
</g>
</svg>
